<svg width="18" height="18" viewBox="0 0 18 18" fill="none" xmlns="http://www.w3.org/2000/svg">
<path d="M15.8289 8.8891L10.5791 13.8388C10.4696 13.942 10.3212 14 10.1664 14C10.0116 14 9.86316 13.942 9.7537 13.8388C9.64425 13.7356 9.58276 13.5957 9.58276 13.4497C9.58276 13.3038 9.64425 13.1638 9.7537 13.0606L14.0083 9.04997H2.58331C2.42861 9.04997 2.28024 8.99203 2.17085 8.88889C2.06146 8.78575 2 8.64586 2 8.5C2 8.35414 2.06146 8.21425 2.17085 8.11111C2.28024 8.00797 2.42861 7.95003 2.58331 7.95003H14.0083L9.7537 3.93938C9.64425 3.83618 9.58276 3.69622 9.58276 3.55028C9.58276 3.40433 9.64425 3.26437 9.7537 3.16117C9.86316 3.05798 10.0116 3 10.1664 3C10.3212 3 10.4696 3.05798 10.5791 3.16117L15.8289 8.1109C15.8832 8.16197 15.9262 8.22263 15.9555 8.28939C15.9849 8.35616 16 8.42773 16 8.5C16 8.57227 15.9849 8.64384 15.9555 8.71061C15.9262 8.77737 15.8832 8.83803 15.8289 8.8891Z" fill="white"/>
</svg>
