<svg width="26" height="26" viewBox="0 0 26 26" fill="none" xmlns="http://www.w3.org/2000/svg">
<path d="M20.8873 19.7377C20.9628 19.8131 21.0227 19.9028 21.0635 20.0014C21.1044 20.1 21.1254 20.2057 21.1254 20.3125C21.1254 20.4193 21.1044 20.525 21.0635 20.6236C21.0227 20.7222 20.9628 20.8119 20.8873 20.8873C20.8118 20.9628 20.7222 21.0227 20.6236 21.0636C20.5249 21.1044 20.4192 21.1255 20.3125 21.1255C20.2057 21.1255 20.1 21.1044 20.0014 21.0636C19.9027 21.0227 19.8131 20.9628 19.7376 20.8873L13 14.1487L6.26231 20.8873C6.10985 21.0398 5.90307 21.1255 5.68746 21.1255C5.47186 21.1255 5.26508 21.0398 5.11262 20.8873C4.96016 20.7349 4.87451 20.5281 4.87451 20.3125C4.87451 20.0969 4.96016 19.8901 5.11262 19.7377L11.8513 13L5.11262 6.26235C4.96016 6.10989 4.87451 5.90311 4.87451 5.6875C4.87451 5.47189 4.96016 5.26512 5.11262 5.11266C5.26508 4.9602 5.47186 4.87455 5.68746 4.87455C5.90307 4.87455 6.10985 4.9602 6.26231 5.11266L13 11.8513L19.7376 5.11266C19.8901 4.9602 20.0969 4.87455 20.3125 4.87455C20.5281 4.87455 20.7349 4.9602 20.8873 5.11266C21.0398 5.26512 21.1254 5.47189 21.1254 5.6875C21.1254 5.90311 21.0398 6.10989 20.8873 6.26235L14.1486 13L20.8873 19.7377Z" fill="#070216"/>
</svg>
