<svg width="16" height="16" viewBox="0 0 16 16" fill="none" xmlns="http://www.w3.org/2000/svg">
<g clip-path="url(#clip0_38_609)">
<path d="M8.51855 0.262695V2.1709C8.80054 2.27875 9.0395 2.47224 9.20605 2.71875L13.3672 1.85352L13.4062 1.8457L13.4229 1.88184L15.3008 5.91895H16.0498V6.64062C16.0498 8.26215 14.7309 9.58105 13.1094 9.58105C11.4879 9.58105 10.1689 8.26215 10.1689 6.64062V5.91895H10.918L12.2021 3.15527L9.44141 3.72949C9.3684 4.26273 9.00635 4.70283 8.51855 4.88965V12.7939H9.60547C10.3846 12.7939 11.0186 13.4279 11.0186 14.207V14.7002H12.0498V15.7373H3.98145V14.7002H5.0127V14.207C5.0127 13.4279 5.64664 12.7939 6.42578 12.7939H7.48145V4.89062C7.17867 4.77474 6.9248 4.56121 6.75781 4.28809L3.63672 4.93652L5.08203 8.04395H5.83105V8.76562C5.83105 10.3871 4.51215 11.7061 2.89062 11.7061C1.2691 11.7061 -0.0498047 10.3871 -0.0498047 8.76562V8.04395H0.699219L2.51953 4.13086L2.53027 4.10742L2.55469 4.10254L6.56934 3.2666C6.66225 2.76314 7.01389 2.3508 7.48145 2.17188V0.262695H8.51855ZM6.42578 13.8311C6.2188 13.8311 6.0498 14.0001 6.0498 14.207V14.7002H9.98145V14.207C9.98145 14.0001 9.81248 13.8311 9.60547 13.8311H6.42578ZM1.01562 9.08105C1.16642 9.98072 1.94884 10.6689 2.89062 10.6689C3.83241 10.6689 4.61483 9.98072 4.76562 9.08105H1.01562ZM11.2344 6.95605C11.3852 7.85572 12.1676 8.54395 13.1094 8.54395C14.0512 8.54395 14.8336 7.85572 14.9844 6.95605H11.2344ZM1.84473 8.04395H3.93652L2.89062 5.79199L1.84473 8.04395ZM12.0635 5.91895H14.1553L13.1094 3.66699L12.0635 5.91895ZM8 3.1123C7.76915 3.1123 7.58105 3.3004 7.58105 3.53125C7.58105 3.7621 7.76915 3.9502 8 3.9502C8.23085 3.9502 8.41895 3.7621 8.41895 3.53125C8.41895 3.3004 8.23085 3.1123 8 3.1123Z" fill="#070216" stroke="#070216" stroke-width="0.1"/>
</g>
<defs>
<clipPath id="clip0_38_609">
<rect width="16" height="16" fill="white"/>
</clipPath>
</defs>
</svg>
